<?xml version="1.0" encoding="utf-8"?>
<!-- Generator: Adobe Illustrator 23.0.3, SVG Export Plug-In . SVG Version: 6.00 Build 0)  -->
<svg version="1.1" id="Layer_1" xmlns="http://www.w3.org/2000/svg" xmlns:xlink="http://www.w3.org/1999/xlink" x="0px" y="0px"
	 viewBox="0 0 1200 1200" enable-background="new 0 0 1200 1200" xml:space="preserve">
<g>
	<path fill="#ECE3D1" d="M670.49,797.512c-5.262,5.262-129.788,82.433-312.194,0S81.18,580.028,140.813,437.963
		s70.156-150.835,36.832-178.898c0,0,47.355-26.308,40.34-26.308c-7.016,0-77.171,0-77.171,0s10.523-78.925,85.941-96.464
		s143.82-24.555,157.851,50.863c14.031,75.418-31.57,159.605-5.262,180.651c26.308,21.047,426.197,187.667,505.122,282.377
		s-28.062,117.511-45.601,115.757c-17.539-1.754,178.897,96.464,142.066,124.527c-36.832,28.062-142.066-17.539-201.698-54.371
		C719.599,799.265,670.49,797.512,670.49,797.512z"/>
	<path fill="#848484" d="M980.93,890.468c-36.832,28.063-142.066-17.539-201.698-54.371c-53.731-33.187-98.901-37.893-107.318-38.5
		c-91.6-22.173-178.36-63.794-250.556-125.032c-34.948-29.644-68.152-64.77-86.456-107.409
		c-6.629-15.441-17.399-41.059-5.656-56.508c11.523-15.159,36.223-13.696,52.548-10.279c13.086,2.74,24.055-7.911,21.125-21.126
		c-7.616-34.364-2.444-64.289,15.418-88.797c107.969,52.286,399.929,182.297,466.128,261.737
		c78.925,94.71-28.062,117.511-45.601,115.757C821.325,764.187,1017.762,862.405,980.93,890.468z"/>
	<path fill="#FBAF49" d="M554.28,833.942v198.591c0,0-1.302,30.401-5.979,37.416c-4.677,7.016-85.356,7.016-87.695,0
		c-2.339-7.015,51.448-37.416,51.448-37.416s-0.884-154.776-0.345-197.4C526.828,835.65,541.046,835.159,554.28,833.942z
		 M411.498,817.75v203.091c0,0-54.531-15.2-87.483,0c-32.952,15.201-50.491,37.417-50.491,37.417s56.125,5.846,100.557,0
		c44.432-5.846,77.171-9.354,78.341-16.37c0.958-5.747,0.347-158.586,0.094-213.697C439.309,825.564,425.623,822.123,411.498,817.75
		z M177.645,259.065c0,0,47.355-26.309,40.34-26.309c-7.016,0-77.172,0-77.172,0s1.6-11.854,7.915-27.379
		c-1.31,3.333-88.594,25.625-95.61,53.688s0,40.339,0,40.339l134.957-30.423C185.29,265.779,181.81,262.573,177.645,259.065z"/>
	<path fill="#353535" d="M1149.304,841.359c-8.077,17.499-152.512-6.324-223.212-18.35c-44.65-30.274-96.621-58.007-87.228-57.068
		c13.411,1.341,79.12-11.678,74.018-60.225c51.367,14.905,140.626,43.301,168.02,61.978c38.586,26.309-33.324,19.293-33.324,19.293
		S1159.827,818.558,1149.304,841.359z M203.59,193.599c-1.555,6.794,2.604,13.541,9.288,15.071
		c6.684,1.53,13.363-2.738,14.918-9.532c1.555-6.794-2.604-13.541-9.288-15.071C211.823,182.537,205.144,186.805,203.59,193.599z"/>
</g>
</svg>
