<?xml version="1.0" standalone="no"?>
<!DOCTYPE svg PUBLIC "-//W3C//DTD SVG 20010904//EN"
 "http://www.w3.org/TR/2001/REC-SVG-20010904/DTD/svg10.dtd">
<svg version="1.0" xmlns="http://www.w3.org/2000/svg"
 width="1280.000000pt" height="1280.000000pt" viewBox="0 0 1280.000000 1280.000000"
 preserveAspectRatio="xMidYMid meet">
<g transform="translate(0.000000,1280.000000) scale(0.100000,-0.100000)"
fill="#000000" stroke="none">
<path d="M8507 10573 c-74 -10 -105 -21 -209 -75 -135 -70 -232 -149 -243
-198 -4 -16 -23 -55 -44 -87 -79 -124 -140 -314 -171 -534 -12 -85 -23 -156
-25 -160 -2 -3 -15 -104 -30 -225 -38 -325 -53 -413 -99 -555 -39 -123 -133
-284 -230 -391 -103 -114 -439 -452 -478 -481 -41 -30 -174 -95 -373 -182
-178 -78 -277 -129 -360 -185 -38 -26 -106 -66 -150 -90 -123 -66 -274 -169
-435 -296 -30 -24 -134 -105 -230 -180 -342 -265 -376 -293 -475 -383 -55 -50
-125 -104 -155 -120 -30 -17 -91 -58 -135 -91 -106 -80 -188 -119 -273 -129
l-67 -7 -590 -383 c-324 -210 -606 -395 -626 -411 -20 -15 -74 -42 -120 -58
-46 -16 -113 -41 -149 -56 -88 -34 -228 -72 -325 -87 -116 -18 -291 -58 -529
-123 -224 -60 -369 -113 -426 -154 -210 -153 -200 -202 39 -202 73 0 131 -5
148 -12 19 -9 112 -14 282 -18 156 -3 256 -9 257 -15 2 -5 -27 -28 -64 -49
-295 -172 -621 -384 -640 -416 -19 -32 -9 -35 41 -11 24 11 46 21 50 21 3 0
26 14 51 31 60 40 289 149 396 189 47 18 162 58 255 91 94 33 215 76 270 97
112 41 202 48 182 14 -4 -4 -42 -31 -87 -58 -145 -88 -204 -136 -211 -171 -3
-18 -20 -54 -38 -81 -32 -50 -39 -90 -20 -109 5 -5 18 -25 27 -44 19 -37 9
-36 152 -26 82 6 117 15 210 57 47 21 121 48 165 60 44 12 130 45 190 75 61
29 164 72 230 95 66 23 166 60 223 81 92 35 163 54 382 105 36 8 74 17 85 20
11 3 72 9 135 13 63 5 176 19 250 30 74 12 177 28 228 36 51 8 141 15 200 15
59 0 150 5 203 12 l96 12 93 -34 c93 -33 94 -33 139 -16 40 14 54 14 108 3 34
-7 71 -21 82 -31 43 -39 213 -59 261 -31 35 20 288 21 345 1 72 -25 197 -40
342 -40 78 -1 144 -3 146 -6 5 -5 27 -128 47 -270 7 -47 21 -137 32 -200 60
-354 67 -472 36 -617 -13 -63 0 -159 38 -266 l25 -72 -31 -25 c-17 -14 -30
-31 -30 -38 0 -28 34 -62 72 -73 38 -10 40 -12 35 -42 -2 -18 1 -46 8 -63 14
-34 42 -44 124 -44 25 0 87 -9 136 -19 159 -35 311 -45 845 -55 42 -1 62 4 82
20 30 24 28 29 -34 67 -32 20 -36 43 -10 51 9 2 47 7 85 11 52 5 75 13 100 33
17 14 34 27 36 29 2 1 -2 9 -8 17 -11 13 -56 15 -299 12 l-287 -3 -57 29 c-41
20 -58 34 -58 48 0 49 -77 49 -214 -1 -44 -16 -92 -29 -107 -29 -61 0 -102 36
-114 102 -8 45 3 50 87 38 96 -14 194 -12 256 6 47 14 84 16 203 11 108 -5
151 -3 163 6 16 12 15 14 -6 33 -24 21 -61 38 -111 49 -47 10 -32 45 33 77 39
19 59 35 67 56 8 19 22 32 40 37 27 6 27 7 9 21 -28 20 -63 18 -161 -11 -132
-38 -239 -50 -321 -36 -86 15 -133 37 -145 68 -11 31 -68 32 -109 1 -16 -12
-33 -18 -37 -14 -10 10 -32 291 -32 421 0 77 4 117 14 135 22 38 18 95 -10
148 -20 38 -25 61 -25 121 0 41 4 88 9 105 5 17 18 60 27 94 13 48 25 70 49
88 49 37 318 189 435 246 439 212 488 240 678 394 64 53 183 147 264 210 96
75 189 159 269 244 119 127 145 160 238 310 46 74 55 93 131 280 61 151 114
468 111 665 -2 124 -20 309 -37 367 -8 29 -15 60 -16 68 0 8 -5 38 -10 65 -5
28 -17 109 -28 180 -10 72 -30 160 -43 195 -17 45 -27 97 -31 170 -4 58 -11
132 -16 165 -5 33 -13 94 -19 135 -46 327 -51 362 -88 535 -24 112 -27 153
-28 300 0 192 6 213 87 301 84 91 365 214 490 214 63 0 274 -62 361 -106 50
-25 145 -43 227 -44 42 0 101 -22 142 -52 23 -16 29 -8 36 47 3 31 -2 68 -14
108 -17 54 -30 73 -104 148 -108 108 -105 107 -376 178 -112 29 -303 100 -359
133 -16 10 -68 53 -115 97 -118 111 -216 187 -279 217 -30 15 -76 43 -103 64
-35 28 -62 41 -96 45 -26 3 -78 11 -117 17 -100 15 -198 16 -298 1z"/>
</g>
</svg>
